<svg id="Layer_1" data-name="Layer 1" xmlns="http://www.w3.org/2000/svg" viewBox="0 0 500 500"><defs><style>.cls-1{fill:#312783;}.cls-1,.cls-3{fill-rule:evenodd;}.cls-2{fill:none;stroke:#1d1d1b;stroke-miterlimit:2.61;stroke-width:0.22px;}.cls-3{fill:#dadada;}</style></defs><title>irctc</title><polygon class="cls-1" points="90.31 489.65 90.31 417.89 113.79 417.89 113.79 489.65 90.31 489.65 90.31 489.65"/><path class="cls-1" d="M150.56,448.72H161c3.68,0,6.21-.5,7.6-1.48s2.1-2.72,2.1-5.19-.7-4.29-2.1-5.28-4.12-1.48-8.18-1.48h-9.89v13.43Zm-22.75,40.93V417.89h34.34c10.76,0,18.42,1.62,23,4.82s6.88,8.5,6.88,15.84a19.58,19.58,0,0,1-2.82,10.9,18.8,18.8,0,0,1-8.72,6.87c4,.85,6.9,2.51,8.72,5s2.79,6.12,2.92,10.92l.39,10a.7.7,0,0,0,0,.23c.1,2.86.79,4.36,2,4.49v2.68H171.41c-.42-1.73-.73-3.23-.95-4.51a19.66,19.66,0,0,1-.31-3V475c0-3.69-.74-6.3-2.2-7.82s-4-2.26-7.6-2.26h-9.79v24.75Z"/><path class="cls-1" d="M250.48,461.83h21.84q-1,14.16-10,22t-24.39,7.81q-17.27,0-27.14-10.11t-9.9-27.7q0-17.54,9.8-27.67T237.39,416q15.6,0,24.53,7.53t10,21.5H249.87c-.34-3.67-1.52-6.43-3.56-8.31s-4.92-2.79-8.63-2.79c-4.53,0-7.9,1.64-10.16,4.93s-3.4,8.29-3.4,14.94,1.2,11.47,3.61,14.81,5.92,5,10.58,5a11.66,11.66,0,0,0,8.5-3.08c2.09-2,3.32-5,3.67-8.76Z"/><polygon class="cls-1" points="297.09 489.65 297.09 436.8 276.44 436.8 276.44 417.89 340.36 417.89 340.36 436.8 320.14 436.8 320.14 489.65 297.09 489.65 297.09 489.65"/><path class="cls-1" d="M394.77,461.83h21.84q-1,14.16-10,22t-24.39,7.81q-17.27,0-27.14-10.11t-9.9-27.7q0-17.54,9.8-27.67T381.69,416q15.58,0,24.52,7.53t10,21.5H394.16c-.34-3.67-1.52-6.43-3.56-8.31S385.68,434,382,434q-6.78,0-10.16,4.93t-3.39,14.94q0,9.8,3.6,14.81t10.58,5a11.66,11.66,0,0,0,8.5-3.08c2.09-2,3.32-5,3.67-8.76Z"/><path class="cls-1" d="M427.15,212.63c24.48,90.49-16,129.71-91.65,114.48-6.3,16.19-12.71,32.31-22.85,46.28,120.72,30.36,169.51-58.4,114.5-160.76ZM188.84,163h51.45c14.08,3.48,22.58,10.86,26.33,19.44A29,29,0,0,1,268.83,197a32.87,32.87,0,0,1-5.13,14.46c-6.16,9.58-17.55,16.72-33,17-9-1.57-13.61,8.08-5.94,15.48l51.56,47.83H188.84a4.78,4.78,0,0,1-4.77-4.77V167.73a4.77,4.77,0,0,1,4.77-4.76Zm86.23,0h35.84a4.77,4.77,0,0,1,4.77,4.76V287a4.78,4.78,0,0,1-4.77,4.77h-8.37L250.12,243.1a54.19,54.19,0,0,0,28.61-22,50.8,50.8,0,0,0,7.86-22.35A46.23,46.23,0,0,0,275.07,163ZM150.34,83.79c66.13-66.44,120.34-51,145,22.13,17.17-2.64,34.33-5.14,51.5-3.35C312.74-17.15,211.47-15,150.34,83.79ZM175.19,386c-90.61-24-104.33-78.72-53.32-136.6-10.88-13.55-21.63-27.17-28.65-42.93C6.56,295.87,59,382.51,175.19,386Z"/><path class="cls-2" d="M427.15,212.63c24.48,90.49-16,129.71-91.65,114.48-6.3,16.19-12.71,32.31-22.85,46.28,120.72,30.36,169.51-58.4,114.5-160.76ZM188.84,163h51.45c14.08,3.48,22.58,10.86,26.33,19.44A29,29,0,0,1,268.83,197a32.87,32.87,0,0,1-5.13,14.46c-6.16,9.58-17.55,16.72-33,17-9-1.57-13.61,8.08-5.94,15.48l51.56,47.83H188.84a4.78,4.78,0,0,1-4.77-4.77V167.73a4.77,4.77,0,0,1,4.77-4.76Zm86.23,0h35.84a4.77,4.77,0,0,1,4.77,4.76V287a4.78,4.78,0,0,1-4.77,4.77h-8.37L250.12,243.1a54.19,54.19,0,0,0,28.61-22,50.8,50.8,0,0,0,7.86-22.35A46.23,46.23,0,0,0,275.07,163ZM150.34,83.79c66.13-66.44,120.34-51,145,22.13,17.17-2.64,34.33-5.14,51.5-3.35C312.74-17.15,211.47-15,150.34,83.79ZM175.19,386c-90.61-24-104.33-78.72-53.32-136.6-10.88-13.55-21.63-27.17-28.65-42.93C6.56,295.87,59,382.51,175.19,386Z"/><path class="cls-3" d="M73.09,168.72c96-56.94,209.57-77,322.88-61.51q1,168.17-105.71,290.21c-95.45-48.69-167.84-123.64-217.17-228.7Zm20.5,37.63c72.61-63.16,165.81-97.73,264.3-102.17q26.87,142.47-44.69,262.49c-88.5-26.5-161.5-78.86-219.61-160.32Z"/></svg>